<svg width="16" height="16" viewBox="0 0 16 16" fill="none" xmlns="http://www.w3.org/2000/svg">
<path d="M7.99996 13.3334C10.9455 13.3334 13.3333 10.9456 13.3333 8.00008C13.3333 5.05456 10.9455 2.66675 7.99996 2.66675C5.05444 2.66675 2.66663 5.05456 2.66663 8.00008C2.66663 10.9456 5.05444 13.3334 7.99996 13.3334Z" stroke="#65BF4F" stroke-width="1.5"/>
<path d="M7.99996 13.3334C10.9455 13.3334 13.3333 10.9456 13.3333 8.00008C13.3333 5.05456 10.9455 2.66675 7.99996 2.66675C5.05444 2.66675 2.66663 5.05456 2.66663 8.00008C2.66663 10.9456 5.05444 13.3334 7.99996 13.3334Z" stroke="#A1A75C" stroke-width="1.5"/>
<path d="M7.33337 5.00008C7.33337 4.81599 7.48264 4.66675 7.66671 4.66675H8.00004C8.18411 4.66675 8.33337 4.81599 8.33337 5.00008V8.33342C8.33337 8.51748 8.18411 8.66675 8.00004 8.66675H7.66671C7.48264 8.66675 7.33337 8.51748 7.33337 8.33342V5.00008Z" fill="#65BF4F"/>
<path d="M7.33337 5.00008C7.33337 4.81599 7.48264 4.66675 7.66671 4.66675H8.00004C8.18411 4.66675 8.33337 4.81599 8.33337 5.00008V8.33342C8.33337 8.51748 8.18411 8.66675 8.00004 8.66675H7.66671C7.48264 8.66675 7.33337 8.51748 7.33337 8.33342V5.00008Z" fill="#A1A75C"/>
<path d="M10.3334 8C10.5174 8 10.6667 8.14927 10.6667 8.33333V8.66667C10.6667 8.85073 10.5174 9 10.3334 9H7.66671C7.48264 9 7.33337 8.85073 7.33337 8.66667V8.33333C7.33337 8.14927 7.48264 8 7.66671 8H10.3334Z" fill="#65BF4F"/>
<path d="M10.3334 8C10.5174 8 10.6667 8.14927 10.6667 8.33333V8.66667C10.6667 8.85073 10.5174 9 10.3334 9H7.66671C7.48264 9 7.33337 8.85073 7.33337 8.66667V8.33333C7.33337 8.14927 7.48264 8 7.66671 8H10.3334Z" fill="#A1A75C"/>
</svg>
