<svg width="16" height="12" viewBox="0 0 16 12" fill="none" xmlns="http://www.w3.org/2000/svg">
<path d="M8.00004 9.66675C11.6819 9.66675 14.6667 7.87589 14.6667 5.66675C14.6667 3.45761 11.6819 1.66675 8.00004 1.66675C4.31814 1.66675 1.33337 3.45761 1.33337 5.66675C1.33337 7.87589 4.31814 9.66675 8.00004 9.66675Z" stroke="#65BF4F" stroke-width="1.5"/>
<path d="M8.00004 9.66675C11.6819 9.66675 14.6667 7.87589 14.6667 5.66675C14.6667 3.45761 11.6819 1.66675 8.00004 1.66675C4.31814 1.66675 1.33337 3.45761 1.33337 5.66675C1.33337 7.87589 4.31814 9.66675 8.00004 9.66675Z" stroke="#A1A75C" stroke-width="1.5"/>
<path d="M12.6667 8.3335C12.3334 9.66683 10.2552 11.0002 8.00004 11.0002C5.74488 11.0002 3.66671 9.66683 3.33337 8.3335" stroke="#65BF4F" stroke-width="1.5"/>
<path d="M12.6667 8.3335C12.3334 9.66683 10.2552 11.0002 8.00004 11.0002C5.74488 11.0002 3.66671 9.66683 3.33337 8.3335" stroke="#A1A75C" stroke-width="1.5"/>
<path d="M12.0772 6.42926C11.9173 7.5072 10.9314 7.99733 9.14484 7.98906C6.86284 7.9786 5.87658 6.61126 6.03645 5.53333C6.19632 4.45536 7.67818 3.78206 9.34631 4.02946C11.0144 4.27686 12.237 5.35126 12.0772 6.42926Z" stroke="#65BF4F" stroke-width="1.5"/>
<path d="M12.0772 6.42926C11.9173 7.5072 10.9314 7.99733 9.14484 7.98906C6.86284 7.9786 5.87658 6.61126 6.03645 5.53333C6.19632 4.45536 7.67818 3.78206 9.34631 4.02946C11.0144 4.27686 12.237 5.35126 12.0772 6.42926Z" stroke="#A1A75C" stroke-width="1.5"/>
<path d="M6.00723 5.18559C4.72882 5.02339 3.61849 5.47485 3.52723 6.19399C3.43598 6.91319 4.39836 7.62765 5.67676 7.78985C6.26382 7.86439 6.81541 7.80945 7.24921 7.65865" stroke="#65BF4F" stroke-width="1.5" stroke-linecap="round"/>
<path d="M6.00723 5.18559C4.72882 5.02339 3.61849 5.47485 3.52723 6.19399C3.43598 6.91319 4.39836 7.62765 5.67676 7.78985C6.26382 7.86439 6.81541 7.80945 7.24921 7.65865" stroke="#A1A75C" stroke-width="1.5" stroke-linecap="round"/>
</svg>
