<svg width="22" height="17" viewBox="0 0 22 17" fill="none" xmlns="http://www.w3.org/2000/svg">
<path d="M11 13.5C16.5228 13.5 21 10.8137 21 7.5C21 4.18629 16.5228 1.5 11 1.5C5.47715 1.5 1 4.18629 1 7.5C1 10.8137 5.47715 13.5 11 13.5Z" stroke="#6D7077" stroke-width="1.5"/>
<path d="M18 11.5C17.5 13.5 14.3827 15.5 11 15.5C7.61726 15.5 4.5 13.5 4 11.5" stroke="#6D7077" stroke-width="1.5"/>
<path d="M17.1156 8.6439C16.8758 10.2608 15.397 10.996 12.7171 10.9836C9.29414 10.9679 7.81474 8.9169 8.05455 7.3C8.29436 5.68304 10.5171 4.67309 13.0193 5.04419C15.5214 5.41529 17.3554 7.0269 17.1156 8.6439Z" stroke="#6D7077" stroke-width="1.5"/>
<path d="M8.01073 6.77838C6.09311 6.53508 4.42761 7.21228 4.29072 8.29098C4.15384 9.36978 5.59741 10.4415 7.51502 10.6848C8.3956 10.7966 9.223 10.7142 9.8737 10.488" stroke="#6D7077" stroke-width="1.5" stroke-linecap="round"/>
</svg>
